# xmcd
#
# Track frame offsets:
#	150
#	18259
#	45578
#	67159
#	93672
#	111255
#	129918
#	145930
#	157335
#	165723
#	180516
#	195826
#	213424
#	225428
#	239480
#	256114
#	274698
#
# Disc length: 3912
#
# Revision: 4
# Processed by: cddbd v1.5.1PL0 Copyright (c) Steve Scherf et al.
# Submitted via: FreeRIP 1.20
# Normalized: r3:TRMNUM
#
DISCID=ea0f4611
DTITLE=Михаил Боярский - GRAND Collection
DYEAR=1900
DGENRE=Blues
TTITLE0=Все пройдет
TTITLE1=Спасибо родная
TTITLE2=Зеленоглазое такси
TTITLE3=Вот и расстались
TTITLE4=Остров детства
TTITLE5=Городские цветы
TTITLE6=Листья жгут
TTITLE7=О бедном гусаре
TTITLE8=Настанет день и час
TTITLE9=Рыжий конь
TTITLE10=Песня мушкетеров
TTITLE11=Большая медведица
TTITLE12=Сяду в скорый поезд
TTITLE13=Песенка о вещах
TTITLE14=В нашем дворе
TTITLE15=Моим друзьям
TTITLE16=Встреча в пути
EXTD=
EXTT0=
EXTT1=
EXTT2=
EXTT3=
EXTT4=
EXTT5=
EXTT6=
EXTT7=
EXTT8=
EXTT9=
EXTT10=
EXTT11=
EXTT12=
EXTT13=
EXTT14=
EXTT15=
EXTT16=
PLAYORDER=
